<?xml version="1.0" encoding="UTF-8"?>
<svg width="350px" height="60px" viewBox="0 0 350 60" version="1.1" xmlns="http://www.w3.org/2000/svg" xmlns:xlink="http://www.w3.org/1999/xlink">
    <!-- Generator: Sketch 48.2 (47327) - http://www.bohemiancoding.com/sketch -->
    <title>seaofcakes_primary</title>
    <desc>Created with Sketch.</desc>
    <defs></defs>
    <g id="Page-1" stroke="none" stroke-width="1" fill="none" fill-rule="evenodd">
        <g id="seaofcakes_primary">
            <path d="M69.0810811,14.0675676 L44.6756757,14.0675676 C49.0540541,10.6621622 50.4324324,4.98648649 50.4324324,1.41891892 C50.4324324,1.09459459 50.2702703,0.689189189 50.027027,0.445945946 C49.7837838,0.202702703 49.4594595,0.0405405405 49.0540541,0.0405405405 C48.7297297,0.0405405405 41.6756757,0.121621622 37.2162162,4.74324324 C36.3243243,5.63513514 35.6756757,6.60810811 35.1081081,7.74324324 C34.5405405,6.60810811 33.8918919,5.63513514 33,4.74324324 C28.5405405,0.0405405405 21.4864865,0.0405405405 21.1621622,0.0405405405 C20.4324324,0.0405405405 19.7837838,0.689189189 19.7837838,1.41891892 C19.7837838,1.74324324 19.7837838,8.55405405 24.3243243,13.0135135 C24.7297297,13.4189189 25.1351351,13.7432432 25.5405405,14.0675676 L1.37837838,14.0675676 C0.648648649,14.0675676 0,14.7162162 0,15.4459459 L0,58.5 C0.0810810811,59.2297297 0.648648649,59.8783784 1.37837838,59.8783784 L69.0810811,59.8783784 C69.8108108,59.8783784 70.4594595,59.2297297 70.4594595,58.5 L70.4594595,15.4459459 C70.4594595,14.7162162 69.8108108,14.0675676 69.0810811,14.0675676 Z M39.2432432,6.68918919 C41.7567568,4.01351351 45.5675676,3.2027027 47.5945946,2.87837838 C47.3513514,4.90540541 46.5405405,8.47297297 43.9459459,11.0675676 C42.0810811,12.9324324 39.6486486,13.9054054 36.5675676,13.9864865 C36.5675676,13.5 36.4864865,13.0945946 36.4864865,12.6081081 C36.8108108,10.2567568 37.7027027,8.22972973 39.2432432,6.68918919 Z M22.7027027,2.87837838 C24.7297297,3.2027027 28.5405405,4.01351351 31.0540541,6.68918919 C32.5135135,8.22972973 33.4864865,10.2567568 33.7297297,12.6891892 C33.6486486,13.0945946 33.6486486,13.5810811 33.6486486,14.0675676 C24.972973,13.6621622 23.1081081,6.2027027 22.7027027,2.87837838 Z M67.7027027,57.1216216 L2.75675676,57.1216216 L2.75675676,45.2027027 L67.7027027,45.2027027 L67.7027027,57.1216216 Z M2.75675676,42.527027 L2.75675676,31.5 L67.7027027,31.5 L67.7027027,42.527027 L2.75675676,42.527027 Z M67.7837838,28.7432432 L2.75675676,28.7432432 L2.75675676,16.8243243 L67.7837838,16.8243243 L67.7837838,28.7432432 Z" id="Shape" fill="#C5B358" fill-rule="nonzero"></path>
            <path d="M95.48,25.96 C94.4399948,25.96 93.520004,26.2999966 92.72,26.98 C91.919996,27.6600034 91.52,28.499995 91.52,29.5 C91.52,30.500005 91.9699955,31.4199958 92.87,32.26 C93.7700045,33.1000042 94.8499937,33.8699965 96.11,34.57 C97.3700063,35.2700035 98.6399936,36.019996 99.92,36.82 C101.200006,37.620004 102.289995,38.6399938 103.19,39.88 C104.090004,41.1200062 104.54,42.539992 104.54,44.14 C104.54,46.5000118 103.650009,48.5099917 101.87,50.17 C100.089991,51.8300083 97.9400126,52.66 95.42,52.66 C93.819992,52.66 92.3300069,52.3100035 90.95,51.61 C89.5699931,50.9099965 88.5600032,49.9800058 87.92,48.82 L87.92,45.94 C89.4400076,49.3000168 91.8799832,50.98 95.24,50.98 C97.3200104,50.98 99.0699929,50.3400064 100.49,49.06 C101.910007,47.7799936 102.62,46.3500079 102.62,44.77 C102.62,43.1899921 102.170004,41.8600054 101.27,40.78 C100.369995,39.6999946 99.2800064,38.7800038 98,38.02 C96.7199936,37.2599962 95.4500063,36.5100037 94.19,35.77 C92.9299937,35.0299963 91.8500045,34.1300053 90.95,33.07 C90.0499955,32.0099947 89.6,30.7700071 89.6,29.35 C89.6,27.9299929 90.1699943,26.7300049 91.31,25.75 C92.4500057,24.7699951 93.919991,24.28 95.72,24.28 C97.520009,24.28 99.0599936,24.979993 100.34,26.38 L100.34,28.84 C99.0599936,26.9199904 97.4400098,25.96 95.48,25.96 Z M123.74,52.72 L123.2,52.72 C119.399981,52.72 116.090014,51.2900143 113.27,48.43 C110.449986,45.5699857 109.04,42.240019 109.04,38.44 C109.04,34.639981 110.439986,31.3500139 113.24,28.57 C116.040014,25.7899861 119.499979,24.4 123.62,24.4 C127.740021,24.4 131.279985,26.0399836 134.24,29.32 L115.4,47.92 C118.000013,50.0000104 120.499988,51.04 122.9,51.04 C125.300012,51.04 127.44999,50.4900055 129.35,49.39 C131.250009,48.2899945 132.819994,46.8200092 134.06,44.98 L134.06,48.04 C131.219986,51.1600156 127.78002,52.72 123.74,52.72 Z M123.08,26.08 C119.919984,26.08 117.110012,27.3099877 114.65,29.77 C112.189988,32.2300123 110.96,35.059984 110.96,38.26 C110.96,41.460016 112.019989,44.259988 114.14,46.66 L131.6,29.32 C129.119988,27.1599892 126.280016,26.08 123.08,26.08 Z M166.88,25 L166.88,52 L164.96,52 L164.96,45.28 C163.839994,47.5600114 162.160011,49.3599934 159.92,50.68 C157.679989,52.0000066 155.280013,52.66 152.72,52.66 C148.79998,52.66 145.440014,51.2700139 142.64,48.49 C139.839986,45.7099861 138.44,42.3800194 138.44,38.5 C138.44,34.6199806 139.839986,31.2900139 142.64,28.51 C145.440014,25.7299861 148.79998,24.34 152.72,24.34 C155.280013,24.34 157.729988,25.0199932 160.07,26.38 C162.410012,27.7400068 164.039995,29.5399888 164.96,31.78 L164.96,25 L166.88,25 Z M140.36,38.56 C140.36,41.9200168 141.589988,44.8299877 144.05,47.29 C146.510012,49.7500123 149.429983,50.98 152.81,50.98 C156.190017,50.98 159.079988,49.7500123 161.48,47.29 C163.880012,44.8299877 165.08,41.9100169 165.08,38.53 C165.08,35.1499831 163.870012,32.2200124 161.45,29.74 C159.029988,27.2599876 156.140017,26.02 152.78,26.02 C149.419983,26.02 146.510012,27.2699875 144.05,29.77 C141.589988,32.2700125 140.36,35.1999832 140.36,38.56 Z M186.62,52.66 C182.779981,52.66 179.480014,51.2300143 176.72,48.37 C173.959986,45.5099857 172.58,42.180019 172.58,38.38 C172.58,34.579981 173.979986,31.2900139 176.78,28.51 C179.580014,25.7299861 182.94998,24.34 186.89,24.34 C190.83002,24.34 194.189986,25.7299861 196.97,28.51 C199.750014,31.2900139 201.14,34.5899809 201.14,38.41 C201.14,42.2300191 199.780014,45.5599858 197.06,48.4 C194.339986,51.2400142 191.040019,52.66 187.16,52.66 L186.62,52.66 Z M199.22,38.56 C199.22,35.159983 198.010012,32.2200124 195.59,29.74 C193.169988,27.2599876 190.280017,26.02 186.92,26.02 C183.559983,26.02 180.650012,27.2699875 178.19,29.77 C175.729988,32.2700125 174.5,35.1999832 174.5,38.56 C174.5,41.9200168 175.729988,44.8299877 178.19,47.29 C180.650012,49.7500123 183.569983,50.98 186.95,50.98 C190.330017,50.98 193.219988,49.7500123 195.62,47.29 C198.020012,44.8299877 199.22,41.9200168 199.22,38.56 Z M217.1,14.08 L217.1,15.76 C214.779988,15.76 212.810008,16.559992 211.19,18.16 C209.569992,19.760008 208.76,21.7799878 208.76,24.22 L208.76,40 L217.16,40 L217.16,41.68 L208.76,41.68 L208.76,52 L206.84,52 L206.84,24.22 C206.84,21.2599852 207.83999,18.8300095 209.84,16.93 C211.84001,15.0299905 214.259986,14.08 217.1,14.08 Z M235.04,52.78 L234.5,52.78 C230.659981,52.78 227.360014,51.3600142 224.6,48.52 C221.839986,45.6799858 220.46,42.3500191 220.46,38.53 C220.46,34.7099809 221.859986,31.4100139 224.66,28.63 C227.460014,25.8499861 230.89998,24.46 234.98,24.46 C239.06002,24.46 242.539986,25.9999846 245.42,29.08 L245.42,32.14 C244.179994,30.2999908 242.610009,28.8400054 240.71,27.76 C238.80999,26.6799946 236.82001,26.14 234.74,26.14 C231.419983,26.14 228.530012,27.3699877 226.07,29.83 C223.609988,32.2900123 222.38,35.219983 222.38,38.62 C222.38,42.020017 223.609988,44.9499877 226.07,47.41 C228.530012,49.8700123 231.419983,51.1 234.74,51.1 C236.82001,51.1 238.80999,50.5600054 240.71,49.48 C242.610009,48.3999946 244.179994,46.9200094 245.42,45.04 L245.42,48.16 C242.619986,51.2400154 239.160021,52.78 235.04,52.78 Z M277.46,25 L277.46,52 L275.54,52 L275.54,45.28 C274.419994,47.5600114 272.740011,49.3599934 270.5,50.68 C268.259989,52.0000066 265.860013,52.66 263.3,52.66 C259.37998,52.66 256.020014,51.2700139 253.22,48.49 C250.419986,45.7099861 249.02,42.3800194 249.02,38.5 C249.02,34.6199806 250.419986,31.2900139 253.22,28.51 C256.020014,25.7299861 259.37998,24.34 263.3,24.34 C265.860013,24.34 268.309988,25.0199932 270.65,26.38 C272.990012,27.7400068 274.619995,29.5399888 275.54,31.78 L275.54,25 L277.46,25 Z M250.94,38.56 C250.94,41.9200168 252.169988,44.8299877 254.63,47.29 C257.090012,49.7500123 260.009983,50.98 263.39,50.98 C266.770017,50.98 269.659988,49.7500123 272.06,47.29 C274.460012,44.8299877 275.66,41.9100169 275.66,38.53 C275.66,35.1499831 274.450012,32.2200124 272.03,29.74 C269.609988,27.2599876 266.720017,26.02 263.36,26.02 C259.999983,26.02 257.090012,27.2699875 254.63,29.77 C252.169988,32.2700125 250.94,35.1999832 250.94,38.56 Z M284.66,7.12 L286.58,7.12 L286.58,34.36 L297.26,25 L299.72,25 L287.36,35.8 L302.84,52 L300.26,52 L286.58,37.78 L286.58,52 L284.66,52 L284.66,7.12 Z M318.2,52.72 L317.66,52.72 C313.859981,52.72 310.550014,51.2900143 307.73,48.43 C304.909986,45.5699857 303.5,42.240019 303.5,38.44 C303.5,34.639981 304.899986,31.3500139 307.7,28.57 C310.500014,25.7899861 313.959979,24.4 318.08,24.4 C322.200021,24.4 325.739985,26.0399836 328.7,29.32 L309.86,47.92 C312.460013,50.0000104 314.959988,51.04 317.36,51.04 C319.760012,51.04 321.90999,50.4900055 323.81,49.39 C325.71001,48.2899945 327.279994,46.8200092 328.52,44.98 L328.52,48.04 C325.679986,51.1600156 322.24002,52.72 318.2,52.72 Z M317.54,26.08 C314.379984,26.08 311.570012,27.3099877 309.11,29.77 C306.649988,32.2300123 305.42,35.059984 305.42,38.26 C305.42,41.460016 306.479989,44.259988 308.6,46.66 L326.06,29.32 C323.579988,27.1599892 320.740016,26.08 317.54,26.08 Z M340.28,25.96 C339.239995,25.96 338.320004,26.2999966 337.52,26.98 C336.719996,27.6600034 336.32,28.499995 336.32,29.5 C336.32,30.500005 336.769995,31.4199958 337.67,32.26 C338.570004,33.1000042 339.649994,33.8699965 340.91,34.57 C342.170006,35.2700035 343.439994,36.019996 344.72,36.82 C346.000006,37.620004 347.089995,38.6399938 347.99,39.88 C348.890004,41.1200062 349.34,42.539992 349.34,44.14 C349.34,46.5000118 348.450009,48.5099917 346.67,50.17 C344.889991,51.8300083 342.740013,52.66 340.22,52.66 C338.619992,52.66 337.130007,52.3100035 335.75,51.61 C334.369993,50.9099965 333.360003,49.9800058 332.72,48.82 L332.72,45.94 C334.240008,49.3000168 336.679983,50.98 340.04,50.98 C342.12001,50.98 343.869993,50.3400064 345.29,49.06 C346.710007,47.7799936 347.42,46.3500079 347.42,44.77 C347.42,43.1899921 346.970004,41.8600054 346.07,40.78 C345.169995,39.6999946 344.080006,38.7800038 342.8,38.02 C341.519994,37.2599962 340.250006,36.5100037 338.99,35.77 C337.729994,35.0299963 336.650004,34.1300053 335.75,33.07 C334.849995,32.0099947 334.4,30.7700071 334.4,29.35 C334.4,27.9299929 334.969994,26.7300049 336.11,25.75 C337.250006,24.7699951 338.719991,24.28 340.52,24.28 C342.320009,24.28 343.859994,24.979993 345.14,26.38 L345.14,28.84 C343.859994,26.9199904 342.24001,25.96 340.28,25.96 Z" id="seaofcakes" fill="#111111"></path>
        </g>
    </g>
</svg>