<?xml version="1.0" encoding="UTF-8"?>
<svg width="263px" height="121px" viewBox="0 0 263 121" version="1.1" xmlns="http://www.w3.org/2000/svg" xmlns:xlink="http://www.w3.org/1999/xlink">
    <!-- Generator: Sketch 48.2 (47327) - http://www.bohemiancoding.com/sketch -->
    <title>seaofcakes_secondary</title>
    <desc>Created with Sketch.</desc>
    <defs></defs>
    <g id="Page-1" stroke="none" stroke-width="1" fill="none" fill-rule="evenodd">
        <g id="seaofcakes_secondary">
            <path d="M166.081081,14.0675676 L141.675676,14.0675676 C146.054054,10.6621622 147.432432,4.98648649 147.432432,1.41891892 C147.432432,1.09459459 147.27027,0.689189189 147.027027,0.445945946 C146.783784,0.202702703 146.459459,0.0405405405 146.054054,0.0405405405 C145.72973,0.0405405405 138.675676,0.121621622 134.216216,4.74324324 C133.324324,5.63513514 132.675676,6.60810811 132.108108,7.74324324 C131.540541,6.60810811 130.891892,5.63513514 130,4.74324324 C125.540541,0.0405405405 118.486486,0.0405405405 118.162162,0.0405405405 C117.432432,0.0405405405 116.783784,0.689189189 116.783784,1.41891892 C116.783784,1.74324324 116.783784,8.55405405 121.324324,13.0135135 C121.72973,13.4189189 122.135135,13.7432432 122.540541,14.0675676 L98.3783784,14.0675676 C97.6486486,14.0675676 97,14.7162162 97,15.4459459 L97,58.5 C97.0810811,59.2297297 97.6486486,59.8783784 98.3783784,59.8783784 L166.081081,59.8783784 C166.810811,59.8783784 167.459459,59.2297297 167.459459,58.5 L167.459459,15.4459459 C167.459459,14.7162162 166.810811,14.0675676 166.081081,14.0675676 Z M136.243243,6.68918919 C138.756757,4.01351351 142.567568,3.2027027 144.594595,2.87837838 C144.351351,4.90540541 143.540541,8.47297297 140.945946,11.0675676 C139.081081,12.9324324 136.648649,13.9054054 133.567568,13.9864865 C133.567568,13.5 133.486486,13.0945946 133.486486,12.6081081 C133.810811,10.2567568 134.702703,8.22972973 136.243243,6.68918919 Z M119.702703,2.87837838 C121.72973,3.2027027 125.540541,4.01351351 128.054054,6.68918919 C129.513514,8.22972973 130.486486,10.2567568 130.72973,12.6891892 C130.648649,13.0945946 130.648649,13.5810811 130.648649,14.0675676 C121.972973,13.6621622 120.108108,6.2027027 119.702703,2.87837838 Z M164.702703,57.1216216 L99.7567568,57.1216216 L99.7567568,45.2027027 L164.702703,45.2027027 L164.702703,57.1216216 Z M99.7567568,42.527027 L99.7567568,31.5 L164.702703,31.5 L164.702703,42.527027 L99.7567568,42.527027 Z M164.783784,28.7432432 L99.7567568,28.7432432 L99.7567568,16.8243243 L164.783784,16.8243243 L164.783784,28.7432432 Z" id="Shape" fill="#C5B358" fill-rule="nonzero"></path>
            <path d="M8.48,93.96 C7.4399948,93.96 6.520004,94.2999966 5.72,94.98 C4.919996,95.6600034 4.52,96.499995 4.52,97.5 C4.52,98.500005 4.9699955,99.4199958 5.87,100.26 C6.7700045,101.100004 7.8499937,101.869996 9.11,102.57 C10.3700063,103.270004 11.6399936,104.019996 12.92,104.82 C14.2000064,105.620004 15.2899955,106.639994 16.19,107.88 C17.0900045,109.120006 17.54,110.539992 17.54,112.14 C17.54,114.500012 16.6500089,116.509992 14.87,118.17 C13.0899911,119.830008 10.9400126,120.66 8.42,120.66 C6.819992,120.66 5.3300069,120.310003 3.95,119.61 C2.5699931,118.909997 1.5600032,117.980006 0.92,116.82 L0.92,113.94 C2.4400076,117.300017 4.8799832,118.98 8.24,118.98 C10.3200104,118.98 12.0699929,118.340006 13.49,117.06 C14.9100071,115.779994 15.62,114.350008 15.62,112.77 C15.62,111.189992 15.1700045,109.860005 14.27,108.78 C13.3699955,107.699995 12.2800064,106.780004 11,106.02 C9.7199936,105.259996 8.4500063,104.510004 7.19,103.77 C5.9299937,103.029996 4.8500045,102.130005 3.95,101.07 C3.0499955,100.009995 2.6,98.7700071 2.6,97.35 C2.6,95.9299929 3.1699943,94.7300049 4.31,93.75 C5.4500057,92.7699951 6.919991,92.28 8.72,92.28 C10.520009,92.28 12.0599936,92.979993 13.34,94.38 L13.34,96.84 C12.0599936,94.9199904 10.4400098,93.96 8.48,93.96 Z M36.74,120.72 L36.2,120.72 C32.399981,120.72 29.0900141,119.290014 26.27,116.43 C23.4499859,113.569986 22.04,110.240019 22.04,106.44 C22.04,102.639981 23.439986,99.3500139 26.24,96.57 C29.040014,93.7899861 32.4999794,92.4 36.62,92.4 C40.7400206,92.4 44.2799852,94.0399836 47.24,97.32 L28.4,115.92 C31.000013,118.00001 33.499988,119.04 35.9,119.04 C38.300012,119.04 40.4499905,118.490005 42.35,117.39 C44.2500095,116.289995 45.8199938,114.820009 47.06,112.98 L47.06,116.04 C44.2199858,119.160016 40.7800202,120.72 36.74,120.72 Z M36.08,94.08 C32.9199842,94.08 30.1100123,95.3099877 27.65,97.77 C25.1899877,100.230012 23.96,103.059984 23.96,106.26 C23.96,109.460016 25.0199894,112.259988 27.14,114.66 L44.6,97.32 C42.1199876,95.1599892 39.280016,94.08 36.08,94.08 Z M79.88,93 L79.88,120 L77.96,120 L77.96,113.28 C76.8399944,115.560011 75.1600112,117.359993 72.92,118.68 C70.6799888,120.000007 68.2800128,120.66 65.72,120.66 C61.7999804,120.66 58.440014,119.270014 55.64,116.49 C52.839986,113.709986 51.44,110.380019 51.44,106.5 C51.44,102.619981 52.839986,99.2900139 55.64,96.51 C58.440014,93.7299861 61.7999804,92.34 65.72,92.34 C68.2800128,92.34 70.7299883,93.0199932 73.07,94.38 C75.4100117,95.7400068 77.0399954,97.5399888 77.96,99.78 L77.96,93 L79.88,93 Z M53.36,106.56 C53.36,109.920017 54.5899877,112.829988 57.05,115.29 C59.5100123,117.750012 62.4299831,118.98 65.81,118.98 C69.1900169,118.98 72.079988,117.750012 74.48,115.29 C76.880012,112.829988 78.08,109.910017 78.08,106.53 C78.08,103.149983 76.8700121,100.220012 74.45,97.74 C72.0299879,95.2599876 69.1400168,94.02 65.78,94.02 C62.4199832,94.02 59.5100123,95.2699875 57.05,97.77 C54.5899877,100.270013 53.36,103.199983 53.36,106.56 Z M99.62,120.66 C95.7799808,120.66 92.4800138,119.230014 89.72,116.37 C86.9599862,113.509986 85.58,110.180019 85.58,106.38 C85.58,102.579981 86.979986,99.2900139 89.78,96.51 C92.580014,93.7299861 95.9499803,92.34 99.89,92.34 C103.83002,92.34 107.189986,93.7299861 109.97,96.51 C112.750014,99.2900139 114.14,102.589981 114.14,106.41 C114.14,110.230019 112.780014,113.559986 110.06,116.4 C107.339986,119.240014 104.040019,120.66 100.16,120.66 L99.62,120.66 Z M112.22,106.56 C112.22,103.159983 111.010012,100.220012 108.59,97.74 C106.169988,95.2599876 103.280017,94.02 99.92,94.02 C96.5599832,94.02 93.6500123,95.2699875 91.19,97.77 C88.7299877,100.270013 87.5,103.199983 87.5,106.56 C87.5,109.920017 88.7299877,112.829988 91.19,115.29 C93.6500123,117.750012 96.5699831,118.98 99.95,118.98 C103.330017,118.98 106.219988,117.750012 108.62,115.29 C111.020012,112.829988 112.22,109.920017 112.22,106.56 Z M130.1,82.08 L130.1,83.76 C127.779988,83.76 125.810008,84.559992 124.19,86.16 C122.569992,87.760008 121.76,89.7799878 121.76,92.22 L121.76,108 L130.16,108 L130.16,109.68 L121.76,109.68 L121.76,120 L119.84,120 L119.84,92.22 C119.84,89.2599852 120.83999,86.8300095 122.84,84.93 C124.84001,83.0299905 127.259986,82.08 130.1,82.08 Z M148.04,120.78 L147.5,120.78 C143.659981,120.78 140.360014,119.360014 137.6,116.52 C134.839986,113.679986 133.46,110.350019 133.46,106.53 C133.46,102.709981 134.859986,99.4100139 137.66,96.63 C140.460014,93.8499861 143.89998,92.46 147.98,92.46 C152.06002,92.46 155.539986,93.9999846 158.42,97.08 L158.42,100.14 C157.179994,98.2999908 155.61001,96.8400054 153.71,95.76 C151.809991,94.6799946 149.82001,94.14 147.74,94.14 C144.419983,94.14 141.530012,95.3699877 139.07,97.83 C136.609988,100.290012 135.38,103.219983 135.38,106.62 C135.38,110.020017 136.609988,112.949988 139.07,115.41 C141.530012,117.870012 144.419983,119.1 147.74,119.1 C149.82001,119.1 151.809991,118.560005 153.71,117.48 C155.61001,116.399995 157.179994,114.920009 158.42,113.04 L158.42,116.16 C155.619986,119.240015 152.160021,120.78 148.04,120.78 Z M190.46,93 L190.46,120 L188.54,120 L188.54,113.28 C187.419994,115.560011 185.740011,117.359993 183.5,118.68 C181.259989,120.000007 178.860013,120.66 176.3,120.66 C172.37998,120.66 169.020014,119.270014 166.22,116.49 C163.419986,113.709986 162.02,110.380019 162.02,106.5 C162.02,102.619981 163.419986,99.2900139 166.22,96.51 C169.020014,93.7299861 172.37998,92.34 176.3,92.34 C178.860013,92.34 181.309988,93.0199932 183.65,94.38 C185.990012,95.7400068 187.619995,97.5399888 188.54,99.78 L188.54,93 L190.46,93 Z M163.94,106.56 C163.94,109.920017 165.169988,112.829988 167.63,115.29 C170.090012,117.750012 173.009983,118.98 176.39,118.98 C179.770017,118.98 182.659988,117.750012 185.06,115.29 C187.460012,112.829988 188.66,109.910017 188.66,106.53 C188.66,103.149983 187.450012,100.220012 185.03,97.74 C182.609988,95.2599876 179.720017,94.02 176.36,94.02 C172.999983,94.02 170.090012,95.2699875 167.63,97.77 C165.169988,100.270013 163.94,103.199983 163.94,106.56 Z M197.66,75.12 L199.58,75.12 L199.58,102.36 L210.26,93 L212.72,93 L200.36,103.8 L215.84,120 L213.26,120 L199.58,105.78 L199.58,120 L197.66,120 L197.66,75.12 Z M231.2,120.72 L230.66,120.72 C226.859981,120.72 223.550014,119.290014 220.73,116.43 C217.909986,113.569986 216.5,110.240019 216.5,106.44 C216.5,102.639981 217.899986,99.3500139 220.7,96.57 C223.500014,93.7899861 226.959979,92.4 231.08,92.4 C235.200021,92.4 238.739985,94.0399836 241.7,97.32 L222.86,115.92 C225.460013,118.00001 227.959988,119.04 230.36,119.04 C232.760012,119.04 234.909991,118.490005 236.81,117.39 C238.71001,116.289995 240.279994,114.820009 241.52,112.98 L241.52,116.04 C238.679986,119.160016 235.24002,120.72 231.2,120.72 Z M230.54,94.08 C227.379984,94.08 224.570012,95.3099877 222.11,97.77 C219.649988,100.230012 218.42,103.059984 218.42,106.26 C218.42,109.460016 219.479989,112.259988 221.6,114.66 L239.06,97.32 C236.579988,95.1599892 233.740016,94.08 230.54,94.08 Z M253.28,93.96 C252.239995,93.96 251.320004,94.2999966 250.52,94.98 C249.719996,95.6600034 249.32,96.499995 249.32,97.5 C249.32,98.500005 249.769996,99.4199958 250.67,100.26 C251.570005,101.100004 252.649994,101.869996 253.91,102.57 C255.170006,103.270004 256.439994,104.019996 257.72,104.82 C259.000006,105.620004 260.089995,106.639994 260.99,107.88 C261.890005,109.120006 262.34,110.539992 262.34,112.14 C262.34,114.500012 261.450009,116.509992 259.67,118.17 C257.889991,119.830008 255.740013,120.66 253.22,120.66 C251.619992,120.66 250.130007,120.310003 248.75,119.61 C247.369993,118.909997 246.360003,117.980006 245.72,116.82 L245.72,113.94 C247.240008,117.300017 249.679983,118.98 253.04,118.98 C255.12001,118.98 256.869993,118.340006 258.29,117.06 C259.710007,115.779994 260.42,114.350008 260.42,112.77 C260.42,111.189992 259.970004,109.860005 259.07,108.78 C258.169996,107.699995 257.080006,106.780004 255.8,106.02 C254.519994,105.259996 253.250006,104.510004 251.99,103.77 C250.729994,103.029996 249.650005,102.130005 248.75,101.07 C247.849996,100.009995 247.4,98.7700071 247.4,97.35 C247.4,95.9299929 247.969994,94.7300049 249.11,93.75 C250.250006,92.7699951 251.719991,92.28 253.52,92.28 C255.320009,92.28 256.859994,92.979993 258.14,94.38 L258.14,96.84 C256.859994,94.9199904 255.24001,93.96 253.28,93.96 Z" id="seaofcakes" fill="#111111"></path>
        </g>
    </g>
</svg>