<?xml version="1.0" encoding="UTF-8"?>
<svg width="262px" height="127px" viewBox="0 0 262 127" version="1.1" xmlns="http://www.w3.org/2000/svg" xmlns:xlink="http://www.w3.org/1999/xlink">
    <!-- Generator: Sketch 48.2 (47327) - http://www.bohemiancoding.com/sketch -->
    <title>sea-of-cakes-vertical copy</title>
    <desc>Created with Sketch.</desc>
    <defs></defs>
    <g id="Page-1" stroke="none" stroke-width="1" fill="none" fill-rule="evenodd">
        <g id="sea-of-cakes-vertical-copy">
            <g id="Group-2" transform="translate(-1.000000, 0.000000)">
                <g id="cake-(1)" transform="translate(98.000000, 0.000000)" fill="#C5B358" fill-rule="nonzero">
                    <path d="M69.0810811,14.0675676 L44.6756757,14.0675676 C49.0540541,10.6621622 50.4324324,4.98648649 50.4324324,1.41891892 C50.4324324,1.09459459 50.2702703,0.689189189 50.027027,0.445945946 C49.7837838,0.202702703 49.4594595,0.0405405405 49.0540541,0.0405405405 C48.7297297,0.0405405405 41.6756757,0.121621622 37.2162162,4.74324324 C36.3243243,5.63513514 35.6756757,6.60810811 35.1081081,7.74324324 C34.5405405,6.60810811 33.8918919,5.63513514 33,4.74324324 C28.5405405,0.0405405405 21.4864865,0.0405405405 21.1621622,0.0405405405 C20.4324324,0.0405405405 19.7837838,0.689189189 19.7837838,1.41891892 C19.7837838,1.74324324 19.7837838,8.55405405 24.3243243,13.0135135 C24.7297297,13.4189189 25.1351351,13.7432432 25.5405405,14.0675676 L1.37837838,14.0675676 C0.648648649,14.0675676 0,14.7162162 0,15.4459459 L0,58.5 C0.0810810811,59.2297297 0.648648649,59.8783784 1.37837838,59.8783784 L69.0810811,59.8783784 C69.8108108,59.8783784 70.4594595,59.2297297 70.4594595,58.5 L70.4594595,15.4459459 C70.4594595,14.7162162 69.8108108,14.0675676 69.0810811,14.0675676 Z M39.2432432,6.68918919 C41.7567568,4.01351351 45.5675676,3.2027027 47.5945946,2.87837838 C47.3513514,4.90540541 46.5405405,8.47297297 43.9459459,11.0675676 C42.0810811,12.9324324 39.6486486,13.9054054 36.5675676,13.9864865 C36.5675676,13.5 36.4864865,13.0945946 36.4864865,12.6081081 C36.8108108,10.2567568 37.7027027,8.22972973 39.2432432,6.68918919 Z M22.7027027,2.87837838 C24.7297297,3.2027027 28.5405405,4.01351351 31.0540541,6.68918919 C32.5135135,8.22972973 33.4864865,10.2567568 33.7297297,12.6891892 C33.6486486,13.0945946 33.6486486,13.5810811 33.6486486,14.0675676 C24.972973,13.6621622 23.1081081,6.2027027 22.7027027,2.87837838 Z M67.7027027,57.1216216 L2.75675676,57.1216216 L2.75675676,45.2027027 L67.7027027,45.2027027 L67.7027027,57.1216216 Z M2.75675676,42.527027 L2.75675676,31.5 L67.7027027,31.5 L67.7027027,42.527027 L2.75675676,42.527027 Z M67.7837838,28.7432432 L2.75675676,28.7432432 L2.75675676,16.8243243 L67.7837838,16.8243243 L67.7837838,28.7432432 Z" id="Shape"></path>
                </g>
                <g id="Group" transform="translate(0.000000, 67.000000)" fill="#111111" font-family="PoiretOne-Regular, Poiret One" font-size="60" font-weight="normal" line-spacing="60">
                    <text id="seaofcakes">
                        <tspan x="0" y="58">seaofcakes</tspan>
                    </text>
                </g>
            </g>
        </g>
    </g>
</svg>